<svg xmlns="http://www.w3.org/2000/svg" xmlns:xlink="http://www.w3.org/1999/xlink" viewBox="0 0 46.25 30.51"><defs><style>.cls-1{fill:url(#linear-gradient);}</style><linearGradient id="linear-gradient" x1="23.12" y1="30.51" x2="23.12" gradientUnits="userSpaceOnUse"><stop offset="0" stop-color="#fff"/><stop offset="1" stop-color="#fff" stop-opacity="0.3"/></linearGradient></defs><g id="Layer_2" data-name="Layer 2"><g id="Layer_1-2" data-name="Layer 1"><path class="cls-1" d="M39.2,17.21a8.48,8.48,0,0,1,1.32,4.6,8.7,8.7,0,0,1-8.69,8.7,8.56,8.56,0,0,1-6.65-3.13,8.52,8.52,0,0,1-6.64,3.13,8.7,8.7,0,0,1-7.15-3.75,8.05,8.05,0,0,1-2.7.45,8.69,8.69,0,1,1,0-17.37,7.28,7.28,0,0,1,1.25.1,7.77,7.77,0,0,1-.1-1.27A8.68,8.68,0,0,1,26.13,4.5a7.85,7.85,0,0,1,1.08-.08,8.05,8.05,0,0,1,2.55.4A8.69,8.69,0,1,1,39.2,17.21Z"/></g></g></svg>