<svg xmlns="http://www.w3.org/2000/svg" xmlns:xlink="http://www.w3.org/1999/xlink" viewBox="0 0 84.44 59.61"><defs><style>.cls-1{fill:url(#linear-gradient);}</style><linearGradient id="linear-gradient" x1="42.22" y1="59.61" x2="42.22" gradientUnits="userSpaceOnUse"><stop offset="0" stop-color="#fff"/><stop offset="1" stop-color="#fff" stop-opacity="0.3"/></linearGradient></defs><g id="Layer_2" data-name="Layer 2"><g id="Layer_1-2" data-name="Layer 1"><path class="cls-1" d="M80.89,47a12.6,12.6,0,0,1-25.2,0,13.45,13.45,0,0,1,.15-1.92,8.64,8.64,0,0,1-1.84.2A8,8,0,0,1,51.91,45c0,.28,0,.55,0,.84A12.6,12.6,0,0,1,30.75,55.1,20.14,20.14,0,0,1,22.18,57,20.37,20.37,0,0,1,1.8,36.62a20.05,20.05,0,0,1,1.39-7.38,7.61,7.61,0,0,1,4.42-13.8,7.18,7.18,0,0,1,1.47.14,13.11,13.11,0,0,1,25.36-4,7.38,7.38,0,0,1,3.28-.75,7.61,7.61,0,0,1,6.73,4A20.37,20.37,0,1,1,75.88,37,12.61,12.61,0,0,1,80.89,47Z"/></g></g></svg>