<svg xmlns="http://www.w3.org/2000/svg" viewBox="0 0 72.86 63.78"><defs><style>.cls-1{fill:#f3c716;}</style></defs><g id="Layer_2" data-name="Layer 2"><g id="Layer_1-2" data-name="Layer 1"><path class="cls-1" d="M54.2,7A11.67,11.67,0,0,1,65.86,18.66c0,8.48-3.44,20.25-29.43,36.87C10.44,38.91,7,27.14,7,18.66A11.67,11.67,0,0,1,18.66,7c2.72,0,9.26.61,11.12,6.3l6.65,20.31L43.08,13.3C44.94,7.61,51.48,7,54.2,7m0-7C45.87,0,38.83,3.8,36.43,11.12,34,3.8,27,0,18.66,0A18.65,18.65,0,0,0,0,18.66c0,12.82,6.55,27,36.43,45.12,29.88-18.17,36.43-32.3,36.43-45.12A18.66,18.66,0,0,0,54.2,0Z"/></g></g></svg>