<svg xmlns="http://www.w3.org/2000/svg" xmlns:xlink="http://www.w3.org/1999/xlink" viewBox="0 0 156.8 54.89"><defs><style>.cls-1{fill:none;}.cls-2{isolation:isolate;}.cls-3,.cls-9{mix-blend-mode:multiply;}.cls-3{opacity:0.9;}.cls-4{fill:#47ae38;}.cls-5{fill:#e62810;}.cls-6{fill:#019fde;}.cls-7{fill:#f4c709;}.cls-8{clip-path:url(#clip-path);}.cls-9{opacity:0.9;}.cls-10{clip-path:url(#clip-path-4);}.cls-11{fill:#fff;}.cls-12{fill:#4d4d4d;}</style><clipPath id="clip-path"><rect class="cls-1" x="102.7" y="12.53" width="8.58" height="8.58" transform="translate(-1.29 19.33) rotate(-10.26)"/></clipPath><clipPath id="clip-path-4"><rect class="cls-1" x="104.05" y="14.22" width="6.17" height="4.91" transform="translate(-1.26 19.35) rotate(-10.26)"/></clipPath></defs><g class="cls-2"><g id="Layer_1" data-name="Layer 1"><g class="cls-3"><path d="M36.66,18.1l-3.41-2.19L32.39,17l6.1,4.48-3,5.57H28.28l-5.06-4,2.19-3.68,4.36,2.46.65-1L24,17l6.06-6.77h5.44l4,4.29Z"/><path d="M47.68,10.38l-.34,11.4,2.82-2-.84-8.15h6.94v11l-4,4.56H43.7l-3.32-4.06V10.38Z"/><path d="M71,13.09l.32,6.68-4,3.89-5,.31v3.19H57.05l.83-16.8H67Zm-7.92,5.15,1.49.2,1.89-2.24-3.23-.7Z"/><path d="M83.69,10.24l-.92,4.68-5.45.83-.06,1.15,4.81.37-.23,3.59-4.29.38.38,1.22,5.22,0L85.07,27H72.63L71.41,16.2l1.22-6Z"/><path d="M97.9,13.43l.38,5.26-2.35,2.62L100.11,25l-4.9,2.12-5.13-4.38.77,4.36H85.66l-1.31-16,9.37-.72Zm-8,4.83,1.37.18,1.38-2-2.62-1.4Z"/><path d="M49.33,31.64l2.2,3.52-.17,3.77-1.43,2.14,2,1.16,1.35,3.93-1.54,3.65-3.19,1.13-12,.09L36,31.69l3.76-1.18Zm-3.85,6.13V35.52l-2.78-.61v3.44Zm.38,8.5V44.4l-2.8-1v3.43Z"/><path d="M69.12,34.44l.47,6.41L66.73,44l5.09,4.48-6,2.59-6.24-5.34.94,5.31H54.22L52.63,31.61,64,30.73Zm-9.67,5.89,1.67.22,1.68-2.42-3.19-1.71Z"/><path d="M92.28,49.62,84,50.94l-.66-4.86-6.68-.17-1.51,5.2-8-1.43,11-18.45,5.5-.55ZM78.36,40.69l4.21.11-1-2.84-2.12-.08Z"/><path d="M107.51,34.44l.47,6.41L105.12,44l5.08,4.48-6,2.59L98,45.77l.93,5.31H92.61L91,31.61l11.41-.88Zm-9.68,5.89,1.68.22,1.67-2.42L98,36.42Z"/><path d="M115.1,30.4l4.12,19.47-8.74,1-.72-20.1Z"/><path d="M140,38.35l-1.7,9.82L127.44,51l-8.66-7.65,1.29-8.6,6.47-4.1,7.48.25ZM126.76,41l2.42,1.62,2.55-.93-.13-3-3.44-.77Z"/><path d="M115.62,20.61c-.16-1-.86-1.71-1-3a23.17,23.17,0,0,1,0-2.5h-7c-.5.24-2.75.95-3,1.5-.74,1.59.83,2,1,3a37.4,37.4,0,0,1,0,5.5h7C115.05,23.89,116.09,23.58,115.62,20.61Z"/></g><path class="cls-4" d="M33.44,14.88,30,12.69l-.86,1.09,6.1,4.47-3,5.58H25.06l-5-4,2.19-3.68,4.35,2.46.66-1-6.39-3.79L26.87,7h5.44l4,4.29Z"/><path class="cls-5" d="M44.46,7.16l-.34,11.41,2.82-2-.83-8.15H53v11l-4,4.56H40.49l-3.32-4.07V7.16Z"/><path class="cls-6" d="M67.79,9.87l.31,6.69-4,3.88-5,.32v3.18H53.83l.84-16.8h9.14ZM59.86,15l1.49.2L63.25,13,60,12.29Z"/><path class="cls-5" d="M80.48,7l-.93,4.67-5.44.84L74,13.69l4.81.36-.23,3.59L74.33,18l.39,1.22,5.21.05,1.92,4.49H69.41L68.19,13l1.22-6Z"/><path class="cls-4" d="M94.68,10.21l.38,5.26-2.34,2.62,4.17,3.68L92,23.89l-5.12-4.38.76,4.36H82.44l-1.31-16,9.37-.72Zm-8,4.83,1.38.18,1.38-2-2.62-1.4Z"/><path class="cls-7" d="M46.11,28.42l2.2,3.52-.16,3.77-1.43,2.14,2,1.16,1.35,3.93L48.53,46.6l-3.19,1.13-12,.08L32.8,28.48l3.77-1.18Zm-3.85,6.14V32.3l-2.78-.6v3.43Zm.39,8.49V41.18l-2.81-1v3.44Z"/><path class="cls-7" d="M65.91,31.23l.47,6.41-2.86,3.18,5.08,4.49-6,2.58-6.25-5.33.94,5.3H51L49.41,28.4l11.41-.88Zm-9.68,5.88,1.68.22,1.67-2.42-3.19-1.7Z"/><path class="cls-5" d="M89.06,46.41l-8.3,1.32-.66-4.87-6.69-.17-1.51,5.2-8-1.43L74.87,28l5.5-.55ZM75.15,37.47l4.2.11-1-2.83-2.12-.09Z"/><path class="cls-4" d="M104.29,31.23l.47,6.41-2.86,3.18L107,45.31l-6,2.58-6.24-5.33.93,5.3H89.39L87.8,28.4l11.41-.88Zm-9.68,5.88,1.68.22L98,34.91l-3.19-1.7Z"/><path class="cls-6" d="M111.88,27.19,116,46.65l-8.75,1-.71-20.1Z"/><path class="cls-4" d="M136.79,35.13,135.09,45l-10.86,2.83-8.66-7.64,1.29-8.61,6.46-4.1,7.48.25Zm-13.25,2.61L126,39.37l2.56-.94-.14-3-3.44-.77Z"/><g id="Artwork_5" data-name="Artwork 5"><g class="cls-8"><g class="cls-8"><rect class="cls-7" x="102.7" y="12.53" width="8.58" height="8.58" transform="translate(-1.29 19.33) rotate(-10.26)"/><g class="cls-8"><g class="cls-9"><g class="cls-10"><path d="M110.27,16.7l-1.23.21a2.44,2.44,0,0,0-.18-.52l1.13-.66a1.17,1.17,0,0,0-.66-.73l-.8.95a1.64,1.64,0,0,0-1.5-.38,1.39,1.39,0,0,0-1,.73l-.34-1.86-.83.15.3,1.66-.67-.38a1.21,1.21,0,0,0-.37.92l1.17.2.11.58-1.19.23a2.13,2.13,0,0,0,.32.95l1-.66.23,1.26.78-.14,0-.47a1.21,1.21,0,0,0,1.18.34,1.65,1.65,0,0,0,1.45-1.68l1.2.31a2.12,2.12,0,0,0,0-1m-2.82,1.62a1,1,0,0,1-1.15-.81,1,1,0,0,1,.8-1.15.94.94,0,0,1,1.13.8,1,1,0,0,1-.78,1.16"/></g></g><path class="cls-11" d="M110,16.55l-1.23.2a2,2,0,0,0-.18-.52l1.13-.66a1.17,1.17,0,0,0-.66-.73l-.8.95a1.67,1.67,0,0,0-1.5-.38,1.39,1.39,0,0,0-1,.73l-.34-1.85-.83.15.3,1.66-.67-.38a1.2,1.2,0,0,0-.37.91l1.17.2.11.58-1.19.23a2.13,2.13,0,0,0,.32.95l1-.66.23,1.27.78-.14,0-.48a1.21,1.21,0,0,0,1.18.34,1.64,1.64,0,0,0,1.45-1.67l1.2.3a2.07,2.07,0,0,0,0-1m-2.81,1.61a1,1,0,0,1-.36-2A.94.94,0,0,1,108,17a1,1,0,0,1-.77,1.16"/><path class="cls-12" d="M110.17,12.65a.33.33,0,0,1-.27.38.32.32,0,0,1-.39-.27.33.33,0,0,1,.27-.38.32.32,0,0,1,.39.27"/><path class="cls-12" d="M103.29,13.89a.32.32,0,0,1-.27.39.33.33,0,0,1-.38-.27.32.32,0,0,1,.27-.39.33.33,0,0,1,.38.27"/><path class="cls-12" d="M104.56,20.86a.34.34,0,0,1-.27.39.34.34,0,1,1-.12-.66.34.34,0,0,1,.39.27"/><path class="cls-12" d="M111.43,19.61a.33.33,0,0,1-.27.39.33.33,0,1,1-.12-.65.32.32,0,0,1,.39.26"/></g></g></g></g></g></g></svg>