<svg xmlns="http://www.w3.org/2000/svg" viewBox="0 0 58.07 41.11"><g id="Layer_2" data-name="Layer 2"><g id="Layer_1-2" data-name="Layer 1"><path d="M16.31,37.43c1.19,2.4,5,.08,6.64-1,6-3.75,6.82-17.92-1.65-17.82-3.8,5.68-8,12.65-15.83,12.16a9.65,9.65,0,0,1,.43,1.62C-8.93,22.24,7.33,3.7,20.31,1.56c6.75-1,15.38-3.19,21,.57,2.39-2.22,5.58-2,8.62-1.95C61.36,2,59.14,33,53.1,39.73c-2.26,1.91-5.57.65-8.28,1-1.42.24-2-1.55-3.24-1.55-10.4,3.66-26.51,2.34-34.67-6.08l3.91,1-.4-3.27c5.15.57,7.14,1.09,6.43-5,8.46,2.19,5.1-.95,5.45-7,3.8,1.31,8.13,10.22,1.88,9.93l.4,4.72c-4,.45-6.68-1.58-5.4,4Zm17-29.62v0C35.21,7.49,38.89,8.85,39,6a1.55,1.55,0,0,0-1.66-1.65c-2.7,0-5.4-.12-8.09,0a1.61,1.61,0,0,0-1.5,1.78C28,8.82,31.5,7.52,33.33,7.81ZM45.07,5.17a205.52,205.52,0,0,1-.4,32.06C47.29,32.61,47.56,10,45.07,5.17ZM8.86,16c.55,5.57,9.75,2.95,8.83-2.16-.05-2.55-3-4.48-3.77-1.33,3.32,2.77-2,7.49-4.08,4.07A.81.81,0,0,0,8.86,16ZM41,35.94c3.47-8.21,3.53-18.29,1-26.83C42.18,18,43,27.15,41,35.94ZM50.68,7.77v0c2.9,1,5.56-2.53,2-3.55-1.85.31-5.32-1-5.63,1.7C47,8.17,49.19,7.77,50.68,7.77Zm-29.81.48c1.62,0,5-.49,4.43-2.75C23.89,1.71,14.44,7.15,20.87,8.25Zm-8.11,7.58c.17-1.57-2.09-1.46-2.16-.3C10.37,17.2,12.81,17.21,12.76,15.83Zm-2.1-4C9.39,12.92,7,14,7,15.83,7.79,15.84,10.41,12.94,10.66,11.81Z"/></g></g></svg>